<svg enable-background="new 0 0 612 612" height="612" viewBox="0 0 612 612" width="612" xmlns="http://www.w3.org/2000/svg"><path d="m387.128 170.748-81.128 81.167-81.128-81.167-54.124 54.124 81.167 81.128-81.128 81.128 54.085 54.086 81.128-81.128 81.128 81.128 54.086-54.086-81.128-81.128 81.128-81.128zm135.252-81.128c-119.493-119.493-313.267-119.493-432.76 0s-119.493 313.267 0 432.76 313.267 119.493 432.76 0c119.493-119.492 119.493-313.267 0-432.76zm-54.085 378.675c-89.62 89.619-234.932 89.619-324.551 0-89.62-89.62-89.62-234.932 0-324.551 89.62-89.62 234.931-89.62 324.551 0 89.619 89.619 89.619 234.893 0 324.551z"/></svg>